# Blender v2.91.0 OBJ File: 'Cube.blend'
# www.blender.org
mtllib Cube.mtl
o Cube.001
v 0.885786 -1.000000 0.885786
v 0.885786 -1.000000 -0.885786
v -0.885786 -1.000000 0.885786
v -0.885786 -1.000000 -0.885786
v 0.885787 1.000000 0.885787
v 0.885787 1.000000 -0.885787
v -0.885786 1.000000 0.885787
v -0.885786 1.000000 -0.885787
v 0.885786 -0.885786 -1.000000
v -0.885787 -0.885786 -1.000000
v 0.885786 0.885786 -1.000000
v -0.885786 0.885787 -1.000000
v 1.000000 0.885787 0.885786
v 1.000000 0.885787 -0.885786
v 1.000000 -0.885787 0.885786
v 1.000000 -0.885787 -0.885786
v -0.885787 0.885787 1.000000
v 0.885787 0.885787 1.000000
v -0.885787 -0.885786 1.000000
v 0.885786 -0.885786 1.000000
v -1.000000 -0.885786 0.885787
v -1.000000 -0.885786 -0.885787
v -1.000000 0.885787 0.885787
v -1.000000 0.885787 -0.885787
v -0.942894 -0.942893 0.942894
v -0.942893 -0.942893 -0.942893
v 0.942893 -0.942893 0.942893
v 0.942893 -0.942893 -0.942893
v -0.942893 0.942893 0.942894
v -0.942893 0.942893 -0.942893
v 0.942893 0.942894 0.942893
v 0.942893 0.942893 -0.942893
vt 0.139962 0.109719
vt 0.143490 0.139286
vt 0.140319 0.138845
vt 0.107137 0.143117
vt 0.103256 0.109853
vt 0.106718 0.110326
vt 0.214944 0.037111
vt 0.230931 0.233301
vt 0.213183 0.207079
vt 0.039398 0.053723
vt 0.037210 0.203940
vt 0.024071 0.033486
vt 0.141069 0.141871
vt 0.109897 0.145724
vt 0.105955 0.106990
vt 0.137498 0.107388
vt 0.137016 0.110461
vt 0.045042 0.211809
vt 0.204861 0.215359
vt 0.046208 0.045996
vt 0.230931 0.008778
vt 0.205425 0.028880
vt 0.141556 0.139961
vt 0.138125 0.109248
vt 0.105391 0.109111
vt 0.110379 0.142327
vt 0.109181 0.143647
vt 0.213395 0.029237
vt 0.212292 0.214518
vt 0.038087 0.210892
vt 0.023072 0.225812
vt 0.039779 0.047224
vt 0.375000 0.250000
vt 0.625000 0.000000
vt 0.625000 0.250000
vt 0.375000 0.000000
vt 0.375000 0.500000
vt 0.125000 0.750000
vt 0.125000 0.500000
vt 0.375000 0.750000
vt 0.875000 0.750000
vt 0.625000 0.500000
vt 0.875000 0.500000
vt 0.625000 0.750000
vt 0.625000 0.500000
vt 0.375000 0.750000
vt 0.375000 0.500000
vt 0.625000 0.750000
vt 0.625000 0.750000
vt 0.375000 1.000000
vt 0.375000 0.750000
vt 0.625000 1.000000
vt 0.375000 0.250000
vt 0.625000 0.500000
vt 0.375000 0.500000
vt 0.625000 0.250000
vn -0.7071 -0.7071 0.0000
vn 0.7071 -0.7071 0.0000
vn -0.7071 0.7071 0.0000
vn 0.7071 0.7071 -0.0000
vn -0.0000 -0.7071 -0.7071
vn -0.0000 -0.7071 0.7071
vn 0.0000 0.7071 -0.7071
vn 0.0000 0.7071 0.7071
vn 0.7071 -0.0000 -0.7071
vn 0.7071 0.0000 0.7071
vn -0.7071 0.0000 -0.7071
vn -0.7071 0.0000 0.7071
vn 1.0000 -0.0000 0.0000
vn 0.0000 0.0000 1.0000
vn -0.0000 -0.0000 -1.0000
vn -1.0000 0.0000 -0.0000
vn -0.0000 -1.0000 0.0000
vn 0.0000 1.0000 -0.0000
usemtl Edges
s off
f 21/1/1 22/2/1 4/3/1
f 16/4/2 15/5/2 1/6/2
f 23/7/3 8/8/3 24/9/3
f 13/10/4 14/11/4 5/12/4
f 10/13/5 9/14/5 4/3/5
f 20/15/6 19/16/6 3/17/6
f 11/18/7 12/19/7 8/8/7
f 18/20/8 7/21/8 17/22/8
f 9/14/9 11/18/9 14/11/9
f 18/20/10 20/15/10 15/5/10
f 22/2/11 24/9/11 12/19/11
f 19/16/12 17/22/12 23/7/12
f 22/2/1 26/23/1 4/3/1
f 4/3/1 3/17/1 21/1/1
f 3/17/1 25/24/1 21/1/1
f 15/5/2 27/25/2 1/6/2
f 1/6/2 2/26/2 16/4/2
f 2/26/2 28/27/2 16/4/2
f 23/7/3 29/28/3 7/21/3
f 7/21/3 8/8/3 23/7/3
f 8/8/3 30/29/3 24/9/3
f 32/30/4 6/31/4 14/11/4
f 6/31/4 5/12/4 14/11/4
f 5/12/4 31/32/4 13/10/4
f 28/27/5 2/26/5 9/14/5
f 2/26/5 4/3/5 9/14/5
f 4/3/5 26/23/5 10/13/5
f 19/16/6 25/24/6 3/17/6
f 3/17/6 1/6/6 20/15/6
f 1/6/6 27/25/6 20/15/6
f 30/29/7 8/8/7 12/19/7
f 8/8/7 6/31/7 11/18/7
f 6/31/7 32/30/7 11/18/7
f 18/20/8 31/32/8 5/12/8
f 5/12/8 7/21/8 18/20/8
f 7/21/8 29/28/8 17/22/8
f 11/18/9 32/30/9 14/11/9
f 14/11/9 16/4/9 9/14/9
f 16/4/9 28/27/9 9/14/9
f 20/15/10 27/25/10 15/5/10
f 15/5/10 13/10/10 18/20/10
f 13/10/10 31/32/10 18/20/10
f 24/9/11 30/29/11 12/19/11
f 12/19/11 10/13/11 22/2/11
f 10/13/11 26/23/11 22/2/11
f 29/28/12 23/7/12 17/22/12
f 23/7/12 21/1/12 19/16/12
f 21/1/12 25/24/12 19/16/12
usemtl Right
f 13/33/13 16/34/13 14/35/13
f 13/33/13 15/36/13 16/34/13
usemtl Front
f 17/37/14 20/38/14 18/39/14
f 17/37/14 19/40/14 20/38/14
usemtl Back
f 9/41/15 12/42/15 11/43/15
f 9/41/15 10/44/15 12/42/15
usemtl Left
f 24/45/16 21/46/16 23/47/16
f 24/45/16 22/48/16 21/46/16
usemtl Bottom
f 4/49/17 1/50/17 3/51/17
f 4/49/17 2/52/17 1/50/17
usemtl Up
f 5/53/18 8/54/18 7/55/18
f 5/53/18 6/56/18 8/54/18